<svg width="279" height="48" viewBox="0 0 279 48" fill="none" xmlns="http://www.w3.org/2000/svg">
<g clip-path="url(#clip0_22739_88)">
<path d="M44.64 3.69232H27.9L13.02 18.4616V3.69232H0V48H13.02V33.2308L27.9 48H44.64L22.32 25.8462L44.64 3.69232Z" fill="white"/>
<path d="M79.98 48H93L76.26 3.69232H61.38L44.64 48H57.66L60.45 40.6154H77.19L79.98 48ZM64.635 29.5385L68.82 18.4616L73.005 29.5385H64.635Z" fill="white"/>
<path d="M187.86 3.69232H172.05H159.03H143.22V16.6154H159.03V48H172.05V16.6154H187.86V3.69232Z" fill="white"/>
<path d="M107.88 3.69232V27.1477L122.76 48H139.5L107.88 3.69232Z" fill="url(#paint0_linear_22739_88)"/>
<path d="M107.88 3.69232H94.86V48H107.88V3.69232Z" fill="white"/>
<path d="M139.5 3.69232H126.48V48H139.5V3.69232Z" fill="white"/>
<path d="M199.545 38.8292H201.061C198.718 44.94 195.705 48 192.031 48C190.766 48 189.757 47.5846 188.999 46.7492C188.241 45.9138 187.86 44.8754 187.86 43.62C187.86 42.3646 188.609 39.3415 190.101 34.4862L198.169 8.07231C198.857 5.83846 199.201 4.53692 199.201 4.17231C199.201 3.62308 199.048 3.23538 198.736 3.00923C198.425 2.78308 197.653 2.66769 196.411 2.66769H195.067L195.514 1.23231C199.304 1.16308 202.098 0.752308 203.889 0H204.749L193.649 36.2631C193.486 36.8354 193.156 37.8692 192.649 39.3785C191.985 41.3631 191.65 42.8677 191.65 43.8923C191.65 44.5754 191.78 45.0877 192.045 45.4338C192.31 45.7754 192.705 45.9462 193.235 45.9462C194.017 45.9462 194.993 45.4108 196.165 44.34C197.337 43.2692 198.462 41.4323 199.541 38.8338L199.545 38.8292Z" fill="white"/>
<path d="M225.637 18.5769H229.775L223.642 38.6262C222.744 41.5246 222.298 43.2785 222.298 43.8969C222.298 44.3539 222.4 44.7 222.609 44.94C222.819 45.18 223.126 45.3 223.539 45.3C225.125 45.3 226.953 43.5 229.022 39.8954H230.468C229.57 41.9492 228.292 43.8139 226.622 45.4892C224.958 47.1646 223.423 48.0046 222.019 48.0046C220.94 48.0046 220.112 47.6077 219.536 46.8092C218.959 46.0108 218.676 45.0323 218.676 43.8692C218.676 42.9323 218.903 41.7139 219.364 40.2092C218.331 41.9677 216.829 43.7031 214.867 45.4246C212.905 47.1462 211.059 48.0092 209.334 48.0092C207.725 48.0092 206.339 47.3308 205.181 45.9739C204.019 44.6169 203.442 42.7846 203.442 40.4816C203.442 37.38 204.34 34.0569 206.13 30.5077C207.92 26.9631 210.259 24 213.142 21.6277C216.025 19.2554 218.49 18.0692 220.536 18.0692C221.731 18.0692 222.679 18.3554 223.381 18.9231C224.083 19.4954 224.548 20.3492 224.776 21.4892L225.637 18.5816V18.5769ZM207.609 41.5016C207.609 43.0062 207.836 44.1416 208.297 44.9077C208.757 45.6739 209.445 46.0523 210.366 46.0523C211.882 46.0523 213.705 44.9446 215.83 42.7339C217.955 40.5231 219.801 37.1354 221.363 32.5708C222.926 28.0108 223.707 24.9092 223.707 23.2662C223.707 22.3062 223.46 21.4939 222.967 20.82C222.475 20.1462 221.768 19.8092 220.847 19.8092C218.043 19.8092 215.137 22.56 212.128 28.0523C209.12 33.5492 207.613 38.0308 207.613 41.4969L207.609 41.5016Z" fill="white"/>
<path d="M242.804 24.8031C245.836 20.3077 248.789 18.0646 251.663 18.0646C253.685 18.0646 255.229 18.8862 256.299 20.5292C257.368 22.1723 257.903 24.0092 257.903 26.0354C257.903 28.7492 257.164 31.8923 255.68 35.46C254.197 39.0277 251.942 42.0139 248.905 44.4046C245.873 46.8 243.046 47.9954 240.424 47.9954C238.61 47.9954 237.085 47.4415 235.857 46.3339C234.63 45.2262 234.011 43.74 234.011 41.8708C234.011 40.6615 234.504 38.4369 235.495 35.2015L243.869 7.79539C244.511 5.71847 244.836 4.50001 244.836 4.13539C244.836 3.60924 244.688 3.23539 244.39 3.00462C244.092 2.77847 243.334 2.66308 242.116 2.66308H241.014L241.428 1.2277C245.083 1.13539 247.78 0.724623 249.528 -0.00460815H250.389L242.804 24.7985V24.8031ZM237.666 43.2785C237.666 44.3262 237.913 45.12 238.405 45.6554C238.898 46.1908 239.628 46.4585 240.596 46.4585C243.906 46.4585 246.961 43.6523 249.765 38.04C252.569 32.4277 253.969 27.8908 253.969 24.4246C253.969 23.0539 253.699 21.96 253.16 21.1385C252.621 20.3169 251.89 19.9062 250.97 19.9062C249.477 19.9062 247.747 20.9631 245.78 23.0723C243.813 25.1815 241.972 28.68 240.247 33.5585C238.522 38.4415 237.661 41.6769 237.661 43.2739L237.666 43.2785Z" fill="white"/>
<path d="M273.931 39.5169C273.931 41.64 273.108 43.5831 271.467 45.3508C269.826 47.1185 267.403 48 264.213 48C261.846 48 260.07 47.4831 258.889 46.4446C257.703 45.4062 257.112 44.2939 257.112 43.1077C257.112 42.4708 257.289 41.9216 257.647 41.4646C258.005 41.0077 258.456 40.7816 259.01 40.7816C260.251 40.7816 260.87 41.4323 260.87 42.7339C260.87 43.0292 260.8 43.4539 260.665 43.9985C260.572 44.2477 260.526 44.4416 260.526 44.58C260.526 45.1292 260.884 45.6 261.595 46.0016C262.306 46.3985 263.157 46.6016 264.148 46.6016C265.687 46.6016 267.091 46.1169 268.351 45.1477C269.616 44.1785 270.249 42.84 270.249 41.1277C270.249 39.6462 269.365 37.3062 267.594 34.1123C265.524 30.4154 264.492 27.7154 264.492 26.0031C264.492 23.8154 265.366 21.9646 267.11 20.46C268.854 18.9554 270.844 18.2031 273.071 18.2031C274.703 18.2031 276.098 18.6139 277.261 19.4354C278.419 20.2569 279 21.1339 279 22.0708C279 23.28 278.493 23.8846 277.484 23.8846C276.726 23.8846 276.173 23.2108 275.829 21.8677C275.461 20.3862 274.462 19.6431 272.829 19.6431C271.518 19.6431 270.384 19.9985 269.416 20.7046C268.449 21.4108 267.97 22.3339 267.97 23.4739C267.97 25.0246 268.742 27.1569 270.281 29.8708C271.727 32.3354 272.699 34.2139 273.192 35.5154C273.685 36.8169 273.931 38.1508 273.931 39.5169Z" fill="white"/>
</g>
<defs>
<linearGradient id="paint0_linear_22739_88" x1="107.88" y1="25.8462" x2="139.5" y2="25.8462" gradientUnits="userSpaceOnUse">
<stop stop-color="white" stop-opacity="0"/>
<stop offset="0.4" stop-color="white"/>
</linearGradient>
<clipPath id="clip0_22739_88">
<rect width="279" height="48" fill="white"/>
</clipPath>
</defs>
</svg>
